<?xml version="1.0" standalone="no"?>
<!DOCTYPE svg PUBLIC "-//W3C//DTD SVG 20010904//EN"
 "http://www.w3.org/TR/2001/REC-SVG-20010904/DTD/svg10.dtd">
<svg version="1.0" xmlns="http://www.w3.org/2000/svg"
 width="570.000000pt" height="766.000000pt" viewBox="0 0 570.000000 766.000000"
 preserveAspectRatio="xMidYMid meet">

<g transform="translate(0.000000,766.000000) scale(0.100000,-0.100000)"
fill="#000000" stroke="none">
<path d="M2815 7637 c-36 -30 -43 -91 -17 -133 11 -17 39 -40 63 -51 76 -36
99 -83 47 -96 -46 -13 -93 28 -81 71 5 19 1 22 -26 22 -29 0 -31 -3 -31 -34 0
-22 9 -45 24 -63 21 -24 32 -28 93 -31 67 -4 72 -3 104 26 29 26 34 37 34 76
0 55 -18 75 -102 120 -68 36 -83 71 -37 82 38 10 78 -14 82 -49 3 -21 9 -27
28 -27 20 0 24 5 24 30 0 19 -9 40 -25 55 -21 21 -33 25 -89 25 -53 0 -70 -4
-91 -23z"/>
<path d="M2305 7616 c-79 -29 -107 -96 -85 -203 10 -45 21 -66 51 -97 39 -38
40 -38 104 -34 112 7 148 50 142 168 -6 118 -43 168 -130 176 -23 2 -60 -2
-82 -10z m68 -41 c17 -16 35 -89 44 -175 4 -45 2 -58 -12 -70 -38 -31 -69 31
-82 162 -4 48 -2 72 7 83 16 19 25 19 43 0z"/>
<path d="M3456 7529 c-52 -183 -67 -243 -64 -257 4 -22 218 -78 229 -60 15 23
4 32 -57 47 -32 7 -60 15 -62 16 -1 1 14 64 35 139 23 84 33 140 27 146 -5 5
-28 12 -51 16 l-42 6 -15 -53z"/>
<path d="M1895 7500 c-6 -10 2 -177 11 -220 3 -15 -22 13 -62 70 -37 52 -69
97 -70 99 -5 6 -94 -21 -100 -30 -3 -5 39 -71 92 -146 54 -76 99 -139 99 -141
1 -1 23 6 49 15 44 17 47 20 42 48 -3 16 -8 86 -11 155 -4 69 -9 133 -11 143
-6 18 -29 23 -39 7z"/>
<path d="M3894 7279 c-41 -83 -74 -152 -72 -154 10 -9 91 -46 93 -43 8 7 145
289 145 296 0 5 -20 18 -45 30 l-45 22 -76 -151z"/>
<path d="M4250 7105 c-55 -68 -100 -128 -100 -133 0 -14 146 -122 181 -134 64
-22 136 48 113 110 -10 25 -9 27 18 28 33 1 57 19 69 52 16 41 -13 85 -94 146
-40 31 -77 56 -80 56 -3 0 -51 -56 -107 -125z m183 -32 c-21 -29 -68 -39 -68
-14 0 7 11 28 25 46 25 33 25 34 45 15 19 -20 19 -20 -2 -47z m-79 -76 c8 -13
7 -24 -4 -44 -23 -40 -44 -50 -74 -34 l-25 14 36 44 c37 45 49 49 67 20z"/>
<path d="M1194 7131 c-18 -11 -39 -30 -48 -42 -23 -34 -21 -100 5 -128 35 -37
66 -44 141 -31 36 7 74 10 83 6 24 -9 15 -45 -17 -69 -23 -17 -32 -19 -52 -9
-13 6 -27 20 -31 31 -8 27 -16 26 -37 -3 -17 -23 -16 -25 9 -50 49 -50 137
-25 190 53 29 43 29 69 0 112 -32 48 -79 58 -163 36 -70 -18 -94 -15 -94 13 0
20 44 60 66 60 8 0 23 -9 35 -21 20 -20 21 -20 40 -3 19 17 19 18 -3 41 -27
29 -80 31 -124 4z"/>
<path d="M2775 6997 c-45 -162 -143 -291 -269 -352 -39 -19 -125 -49 -191 -66
-66 -17 -142 -42 -168 -55 -67 -35 -124 -95 -159 -171 -79 -167 -36 -312 181
-610 98 -133 95 -121 34 -156 -7 -4 -71 61 -164 165 -168 191 -198 219 -279
257 -47 22 -68 26 -150 26 -86 0 -102 -3 -162 -32 -92 -43 -146 -97 -235 -232
-41 -63 -100 -139 -129 -168 -90 -90 -230 -143 -381 -143 -29 0 -53 -3 -52 -7
0 -5 28 -29 62 -54 34 -25 83 -73 109 -106 86 -115 113 -231 103 -444 -8 -161
6 -234 61 -317 40 -61 138 -137 197 -153 100 -27 329 13 707 125 47 14 88 22
92 18 4 -4 9 -18 10 -31 3 -21 -13 -28 -267 -115 -148 -51 -295 -105 -325
-120 -30 -16 -82 -56 -116 -90 -82 -82 -108 -148 -102 -261 6 -115 34 -169
152 -294 127 -134 152 -171 178 -254 27 -92 21 -226 -16 -342 -14 -43 -24 -80
-22 -82 1 -2 34 17 71 42 142 93 289 134 409 115 73 -11 117 -26 236 -77 159
-68 320 -55 459 38 121 81 138 139 148 497 l6 242 42 0 42 0 6 -87 c4 -49 9
-149 12 -223 4 -74 11 -162 16 -194 22 -125 102 -230 217 -284 50 -24 70 -27
157 -27 98 0 103 1 240 56 212 85 287 96 427 60 85 -22 149 -52 222 -105 28
-19 52 -34 54 -31 2 2 -5 28 -17 58 -32 87 -54 222 -46 286 15 125 58 201 188
340 53 56 90 107 111 150 28 60 31 75 31 161 0 81 -4 103 -26 150 -34 72 -93
137 -162 178 -30 18 -171 73 -313 123 -141 49 -258 90 -260 92 -6 6 9 57 17
57 5 0 128 -30 272 -66 221 -57 275 -67 348 -67 75 0 94 4 150 30 108 51 182
141 221 267 19 62 20 85 15 210 -7 163 6 246 50 328 29 53 126 160 198 216
l40 31 -85 1 c-222 1 -364 89 -495 305 -33 55 -80 120 -105 145 -80 81 -188
117 -327 107 -146 -10 -225 -70 -423 -320 -89 -112 -118 -143 -130 -136 -46
26 -48 20 79 213 142 215 170 281 171 397 0 90 -16 143 -65 209 -67 92 -155
132 -381 175 -83 15 -163 37 -199 54 -70 33 -140 97 -191 176 -36 58 -94 186
-94 211 0 7 -4 15 -9 18 -5 3 -16 -22 -26 -57z m108 -466 c87 -91 225 -160
393 -196 130 -27 206 -51 269 -83 111 -56 112 -141 1 -295 -28 -40 -80 -120
-115 -177 -35 -58 -64 -106 -65 -107 -1 -1 -29 5 -61 14 -86 22 -226 13 -328
-22 -91 -31 -138 -30 -232 5 -106 40 -278 38 -395 -4 -11 -4 -44 44 -125 181
-159 269 -158 268 -145 308 20 60 66 89 222 140 252 83 402 172 477 282 l35
52 19 -32 c10 -18 33 -47 50 -66z m1158 -624 c19 -12 77 -80 130 -151 111
-148 188 -229 277 -293 66 -48 146 -83 188 -83 l25 0 -30 -37 c-42 -53 -88
-159 -111 -256 -16 -67 -19 -114 -17 -262 2 -174 1 -182 -23 -230 -21 -42 -32
-52 -68 -65 -46 -16 -22 -19 -352 51 -47 10 -131 24 -188 31 l-103 12 7 76
c13 129 8 338 -10 435 -29 149 -76 253 -168 367 l-21 27 69 78 c38 43 94 107
124 143 29 36 79 91 109 123 47 49 61 57 92 57 21 0 50 -9 70 -23z m-2240 -36
c25 -15 73 -62 106 -102 33 -41 71 -83 83 -94 12 -11 49 -50 81 -86 l59 -67
-35 -42 c-151 -181 -209 -488 -150 -795 8 -44 15 -81 15 -82 0 -7 -81 -25
-187 -43 -71 -12 -189 -36 -263 -55 -211 -52 -211 -52 -254 -14 -69 60 -71 69
-72 309 0 192 -3 223 -23 288 -26 90 -61 160 -101 206 l-30 34 34 6 c58 11
167 72 243 136 55 46 91 89 149 178 99 150 129 188 177 223 54 39 107 39 168
0z m943 -361 l66 -21 0 -204 0 -205 -355 0 c-297 0 -355 2 -355 14 0 29 41
143 67 189 62 106 183 199 304 231 80 22 195 20 273 -4z m501 -4 c184 -49 313
-193 349 -388 l7 -38 -346 0 -345 0 0 200 0 199 63 20 c74 24 199 27 272 7z
m-435 -1031 l0 -505 -27 6 c-112 25 -158 40 -228 74 -245 118 -388 341 -440
685 -8 55 -15 133 -15 173 l0 72 355 0 355 0 0 -505z m796 448 c16 -111 -16
-326 -70 -459 -87 -215 -260 -377 -476 -447 -41 -14 -92 -28 -112 -31 l-38 -7
0 496 0 495 344 0 345 0 7 -47z m194 -535 c118 -43 468 -201 496 -223 24 -19
29 -30 29 -67 0 -60 -30 -115 -133 -244 -168 -211 -206 -296 -207 -467 0 -92
-2 -106 -15 -101 -97 43 -126 49 -270 49 l-145 0 -105 -51 c-134 -66 -201 -88
-272 -88 -69 -1 -103 20 -136 86 -20 40 -25 70 -32 203 -5 85 -14 192 -20 236
-6 45 -9 83 -7 85 2 2 30 11 62 19 274 72 495 255 629 523 30 59 41 72 54 67
9 -4 42 -16 72 -27z m-1719 -106 c42 -86 73 -134 117 -183 108 -117 270 -212
459 -268 69 -21 72 -23 68 -49 -6 -34 -22 -198 -35 -362 -14 -165 -23 -196
-63 -221 -54 -34 -145 -22 -302 39 -164 63 -229 76 -353 69 -85 -4 -137 -16
-222 -51 -13 -5 -14 3 -12 53 8 138 -73 338 -186 463 -96 106 -129 149 -157
209 -56 121 -21 163 205 245 58 21 173 68 255 105 83 37 155 68 160 68 6 0 35
-53 66 -117z"/>
<path d="M4680 6774 c-66 -59 -120 -112 -120 -118 1 -6 37 -49 81 -96 75 -79
80 -83 96 -67 16 16 15 19 -25 60 -23 23 -42 47 -42 53 0 13 63 74 77 74 6 0
23 -13 36 -30 28 -33 37 -36 55 -18 8 8 4 19 -19 46 -34 38 -34 48 4 76 l26
19 38 -42 c35 -39 40 -41 57 -28 19 14 16 18 -54 96 -41 44 -77 81 -82 81 -4
0 -61 -48 -128 -106z"/>
<path d="M787 6772 c-15 -15 -27 -32 -27 -36 0 -7 30 -57 157 -260 23 -35 26
-37 41 -22 15 14 15 18 0 50 -16 33 -16 34 11 66 l27 33 33 -18 33 -17 34 33
c19 18 34 38 34 44 0 10 -289 155 -309 155 -4 0 -19 -13 -34 -28z m163 -152
c0 -4 -9 -15 -19 -24 -19 -17 -21 -16 -45 23 -14 22 -26 43 -26 46 0 2 20 -5
45 -17 25 -12 45 -25 45 -28z"/>
<path d="M5020 6408 c-74 -44 -139 -83 -144 -88 -10 -10 33 -90 48 -90 6 0 38
16 70 36 39 23 62 32 69 25 16 -16 1 -38 -52 -73 -28 -18 -51 -39 -51 -47 0
-11 29 -68 46 -90 2 -2 28 17 59 43 41 35 55 54 55 74 0 20 3 23 12 14 21 -21
82 -14 106 11 36 38 29 88 -24 179 -25 43 -49 80 -52 82 -4 2 -68 -32 -142
-76z m170 -58 c8 -15 6 -24 -10 -40 -24 -24 -53 -26 -75 -4 -15 15 -13 18 22
40 47 29 50 29 63 4z"/>
<path d="M456 6354 c-57 -94 -67 -117 -55 -125 22 -14 26 -11 46 21 9 17 20
30 24 30 4 0 60 -31 125 -70 66 -38 122 -70 126 -70 8 0 62 89 57 94 -2 2 -59
36 -127 76 l-123 72 20 33 c19 33 13 55 -13 55 -6 0 -42 -52 -80 -116z"/>
<path d="M247 5973 c-13 -27 -18 -48 -12 -50 6 -2 75 -35 154 -73 79 -39 145
-69 146 -68 5 6 45 87 45 92 0 6 -289 146 -301 146 -5 0 -19 -21 -32 -47z"/>
<path d="M5291 5924 c-91 -8 -166 -16 -169 -18 -2 -3 -1 -13 2 -23 5 -15 14
-18 44 -15 37 4 39 2 55 -39 13 -34 14 -45 5 -50 -48 -28 -50 -31 -32 -82 9
-26 20 -47 25 -47 16 0 278 194 279 206 0 19 -30 84 -38 83 -4 -1 -81 -8 -171
-15z m69 -48 c0 -6 -80 -59 -84 -55 -3 2 -7 16 -11 32 -7 27 -7 27 44 27 28 0
51 -2 51 -4z"/>
<path d="M137 5609 c-9 -5 -23 -22 -31 -38 -20 -38 -57 -185 -48 -192 8 -7
295 -79 316 -79 8 0 17 15 20 36 4 19 9 41 12 49 4 9 -16 18 -70 31 -75 18
-93 33 -60 52 10 5 32 6 53 1 20 -5 50 -9 67 -9 27 0 32 4 37 29 3 16 9 40 12
54 7 24 6 24 -70 26 -45 1 -83 -3 -91 -10 -11 -9 -16 -6 -23 14 -17 43 -80 61
-124 36z m64 -99 c21 -12 27 -60 7 -60 -20 0 -88 20 -88 26 0 3 5 14 10 25 12
21 41 25 71 9z"/>
<path d="M5430 5458 c-74 -10 -135 -20 -137 -21 -7 -7 29 -203 42 -228 28 -53
121 -52 154 2 16 26 20 28 31 14 19 -23 86 -19 111 6 20 20 21 29 16 118 -3
53 -9 104 -13 114 -8 21 -27 21 -204 -5z m180 -108 c0 -41 -84 -57 -99 -17
-10 25 8 34 67 36 25 1 32 -3 32 -19z m-140 -18 c0 -53 -93 -70 -117 -22 -12
23 -11 25 15 31 15 4 44 7 65 8 30 1 37 -3 37 -17z"/>
<path d="M6 5058 c-3 -13 -6 -64 -6 -114 l0 -91 166 -8 c91 -4 167 -5 168 -3
2 1 6 56 10 121 l7 119 -23 -4 c-21 -3 -23 -9 -26 -68 l-3 -65 -59 3 -60 4 0
49 c0 41 -3 49 -19 49 -14 0 -19 -10 -24 -45 -2 -26 -7 -48 -9 -51 -3 -2 -23
-2 -45 2 l-40 6 5 50 c3 36 1 53 -9 59 -21 13 -26 11 -33 -13z"/>
<path d="M5520 4948 c-91 -5 -166 -10 -166 -11 -1 -1 1 -26 3 -54 l6 -53 51 5
c28 3 104 7 169 11 l117 6 0 54 c0 30 -3 53 -7 52 -5 0 -82 -5 -173 -10z"/>
<path d="M4 4564 c3 -9 6 -19 6 -24 0 -4 49 -13 110 -20 61 -8 110 -16 110
-20 0 -3 -43 -24 -96 -45 -52 -21 -97 -43 -101 -47 -9 -16 8 -98 20 -98 7 1
80 29 162 64 l150 63 -4 44 c-1 24 -4 45 -6 47 -3 4 -321 51 -344 52 -8 0 -11
-6 -7 -16z"/>
<path d="M5644 4540 c-4 -22 -10 -40 -15 -40 -9 0 -201 27 -256 35 -31 5 -31
5 -38 -45 -4 -28 -4 -54 -1 -57 5 -5 240 -42 275 -43 10 0 12 -10 7 -40 -3
-23 -2 -40 3 -40 5 0 16 -2 23 -5 21 -8 56 254 36 266 -23 15 -28 10 -34 -31z"/>
<path d="M420 3611 l-25 -19 24 -44 c38 -69 45 -74 75 -54 14 9 26 21 26 27 0
18 -54 109 -65 109 -5 0 -21 -9 -35 -19z"/>
<path d="M5280 3578 c-16 -29 -30 -56 -30 -60 0 -9 42 -38 55 -38 6 0 24 25
40 55 l30 56 -25 19 c-14 11 -28 20 -32 20 -4 0 -21 -24 -38 -52z"/>
<path d="M4970 3405 l-30 -44 131 -106 c72 -58 135 -105 140 -105 14 0 70 83
62 90 -39 34 -263 210 -267 210 -3 0 -19 -20 -36 -45z"/>
<path d="M623 3327 c-84 -34 -153 -64 -153 -67 0 -3 7 -13 14 -23 12 -16 16
-16 49 -2 l35 14 27 -39 27 -39 -23 -30 -22 -30 28 -41 c16 -23 31 -43 35 -45
4 -2 55 63 114 145 l108 149 -27 36 c-15 19 -35 35 -44 34 -9 -1 -85 -29 -168
-62z m67 -62 c-17 -25 -34 -45 -38 -45 -4 0 -15 11 -24 24 -17 24 -17 24 35
44 29 11 53 21 55 21 2 1 -11 -19 -28 -44z"/>
<path d="M4811 3195 c-17 -20 -31 -39 -31 -43 0 -4 57 -61 126 -126 l126 -119
34 39 c18 21 33 42 34 46 0 8 -241 238 -251 238 -4 0 -21 -16 -38 -35z"/>
<path d="M4632 2997 c-18 -18 -32 -37 -32 -41 0 -5 48 -63 107 -130 59 -66
109 -124 113 -128 8 -11 80 50 80 67 0 15 -216 265 -229 265 -4 0 -21 -15 -39
-33z"/>
<path d="M1059 2839 c-57 -68 -108 -129 -113 -137 -6 -10 8 -30 49 -72 108
-109 173 -116 261 -26 36 37 54 65 62 97 18 70 3 104 -81 187 l-74 73 -104
-122z m188 -51 c-9 -31 -99 -139 -135 -160 -26 -15 -31 -16 -50 -2 -22 15 -21
16 66 119 85 101 87 103 106 85 12 -12 17 -26 13 -42z"/>
<path d="M792 2939 c-27 -10 -36 -31 -28 -64 9 -35 51 -44 78 -17 39 38 1 100
-50 81z"/>
<path d="M4490 2855 c-12 -14 -3 -44 68 -235 3 -8 -35 20 -85 63 -50 42 -95
77 -100 77 -4 0 -26 -15 -47 -33 l-39 -34 138 -116 c147 -122 143 -121 194
-77 l23 20 -31 89 c-68 195 -93 261 -101 261 -4 0 -13 -7 -20 -15z"/>
<path d="M4178 2626 c-14 -10 -18 -28 -18 -75 0 -33 -2 -61 -5 -61 -3 0 -26
13 -52 29 -45 28 -49 29 -73 14 -41 -24 -75 -51 -70 -56 3 -2 44 -27 93 -57
l87 -53 0 -94 c0 -91 1 -93 20 -83 17 9 20 21 20 81 l0 70 58 -33 59 -32 46
30 c26 16 47 31 47 34 0 3 -43 31 -95 63 l-94 58 -3 89 c-3 82 -4 88 -20 76z"/>
<path d="M1661 2384 c-40 -85 -70 -162 -67 -170 12 -32 35 -11 67 62 18 42 35
71 37 66 1 -5 -3 -47 -11 -91 l-14 -82 29 -15 c17 -9 31 -14 32 -12 2 3 101
122 118 143 5 6 -9 -30 -32 -79 -39 -83 -40 -89 -23 -102 23 -17 72 -38 77
-33 6 7 146 312 146 319 0 3 -21 16 -46 28 -54 27 -53 27 -125 -63 -24 -30
-45 -53 -47 -51 -1 2 4 45 13 96 9 51 15 93 13 95 -5 5 -87 45 -91 45 -2 0
-37 -70 -76 -156z"/>
<path d="M3846 2444 c-9 -8 -16 -27 -17 -42 -1 -15 -4 -38 -8 -51 l-7 -25 -42
39 -43 38 -52 -18 c-29 -10 -54 -20 -56 -22 -3 -2 30 -36 74 -76 l78 -73 -12
-79 c-7 -43 -15 -85 -18 -92 -7 -18 22 -17 40 2 8 7 18 36 22 62 4 26 9 52 12
56 3 5 25 -10 48 -33 46 -45 47 -45 124 -13 l36 16 -84 77 -84 77 13 69 c6 38
14 77 17 87 6 22 -20 23 -41 1z"/>
<path d="M1320 2420 c-11 -26 -10 -33 5 -50 34 -38 85 -20 85 30 0 33 -17 50
-51 50 -20 0 -30 -7 -39 -30z"/>
<path d="M2170 2322 c-83 -41 -130 -203 -83 -283 23 -39 87 -69 147 -69 39 0
53 5 77 29 33 33 40 85 13 95 -21 8 -34 -1 -34 -22 0 -25 -26 -59 -51 -65 -14
-4 -29 2 -46 19 -23 23 -25 31 -19 76 9 65 41 151 66 173 13 12 27 15 45 11
26 -7 30 -17 26 -73 -3 -37 16 -44 43 -17 20 19 20 35 1 80 -25 59 -114 82
-185 46z"/>
<path d="M3484 2330 c-15 -6 -24 -24 -33 -65 l-13 -57 -43 42 -44 43 -48 -13
c-26 -7 -51 -15 -56 -17 -4 -3 25 -40 65 -84 l72 -80 -22 -83 c-27 -101 -26
-96 -2 -96 23 0 33 17 50 86 l13 52 46 -48 46 -48 53 15 c28 9 52 18 52 22 0
3 -33 42 -74 86 l-73 80 19 70 c10 39 21 78 24 88 6 19 0 20 -32 7z"/>
<path d="M2486 2128 c-4 -79 -10 -160 -13 -181 -5 -36 -4 -39 18 -35 23 3 24
8 27 78 3 86 16 111 26 50 3 -22 11 -63 17 -90 10 -47 12 -50 43 -50 31 0 32
2 64 93 l31 92 -6 -89 c-6 -99 -3 -106 58 -106 34 0 37 2 42 38 3 20 9 101 13
180 l7 142 -32 2 c-78 4 -71 10 -106 -87 -36 -99 -35 -100 -58 30 l-12 70 -56
3 -56 3 -7 -143z"/>
<path d="M2981 2253 l-34 -4 7 -122 c4 -67 9 -148 13 -180 l6 -59 86 7 c137 9
151 13 151 37 0 19 -4 20 -69 16 l-69 -5 -6 126 c-9 165 -14 191 -35 189 -9 0
-31 -3 -50 -5z"/>
<path d="M42 1038 c4 -581 5 -617 24 -683 55 -191 156 -292 334 -336 71 -18
288 -18 360 0 179 44 280 143 338 334 14 44 16 143 19 675 l4 622 -221 0 -220
0 0 -547 c0 -302 -5 -566 -10 -588 -11 -49 -41 -75 -85 -75 -48 0 -64 8 -83
44 -15 28 -17 85 -20 599 l-3 567 -220 0 -220 0 3 -612z"/>
<path d="M1280 840 l0 -810 385 0 385 0 0 205 0 205 -160 0 -160 0 0 605 0
605 -225 0 -225 0 0 -810z"/>
<path d="M2160 841 l0 -811 258 0 c381 0 511 20 625 92 117 74 168 172 175
337 9 212 -65 336 -240 402 l-59 22 56 22 c154 63 224 184 213 368 -12 189
-105 295 -306 349 -68 18 -116 21 -399 25 l-323 6 0 -812z m548 429 c114 -70
51 -239 -90 -240 -16 0 -18 13 -18 130 l0 130 38 0 c20 0 52 -9 70 -20z m1
-582 c86 -53 80 -214 -10 -260 -19 -10 -49 -18 -66 -18 l-33 0 0 156 0 156 38
-7 c20 -4 52 -16 71 -27z"/>
<path d="M3350 841 l0 -811 225 0 225 0 2 287 3 287 90 -285 91 -284 237 -3
c130 -1 237 0 237 2 0 3 -69 164 -154 358 l-153 352 56 34 c69 41 103 73 141
132 78 122 80 351 3 492 -35 64 -130 153 -195 183 -116 53 -151 57 -490 62
l-318 5 0 -811z m562 420 c63 -71 63 -217 0 -284 -22 -23 -75 -47 -104 -47 -5
0 -8 84 -8 186 l0 187 43 -6 c30 -4 50 -14 69 -36z"/>
<path d="M4646 859 c-93 -435 -171 -800 -173 -810 -5 -18 4 -19 214 -19 l220
0 12 87 c6 49 14 103 17 121 l6 32 123 0 123 0 11 -82 c7 -46 15 -100 18 -120
l6 -38 218 0 c121 0 219 1 218 3 0 1 -77 364 -172 807 l-172 805 -250 3 -250
2 -169 -791z m425 -257 c-40 -2 -76 0 -79 3 -3 2 12 128 33 277 l39 273 41
-275 40 -275 -74 -3z"/>
</g>
</svg>
