<?xml version="1.0" encoding="UTF-8" standalone="no"?>
<svg
   xmlns:dc="http://purl.org/dc/elements/1.1/"
   xmlns:cc="http://creativecommons.org/ns#"
   xmlns:rdf="http://www.w3.org/1999/02/22-rdf-syntax-ns#"
   xmlns:svg="http://www.w3.org/2000/svg"
   xmlns="http://www.w3.org/2000/svg"
   xmlns:sodipodi="http://sodipodi.sourceforge.net/DTD/sodipodi-0.dtd"
   xmlns:inkscape="http://www.inkscape.org/namespaces/inkscape"
   version="1.0"
   width="676pt"
   height="885.45001pt"
   viewBox="0 0 676 885.45001"
   preserveAspectRatio="xMidYMid meet"
   id="svg88"
   sodipodi:docname="ulbra.svg"
   inkscape:version="0.92.4 (5da689c313, 2019-01-14)">
  <metadata
     id="metadata94">
    <rdf:RDF>
      <cc:Work
         rdf:about="">
        <dc:format>image/svg+xml</dc:format>
        <dc:type
           rdf:resource="http://purl.org/dc/dcmitype/StillImage" />
        <dc:title></dc:title>
      </cc:Work>
    </rdf:RDF>
  </metadata>
  <defs
     id="defs92" />
  <sodipodi:namedview
     pagecolor="#ffffff"
     bordercolor="#666666"
     borderopacity="1"
     objecttolerance="10"
     gridtolerance="10"
     guidetolerance="10"
     inkscape:pageopacity="0"
     inkscape:pageshadow="2"
     inkscape:window-width="1920"
     inkscape:window-height="1001"
     id="namedview90"
     showgrid="false"
     inkscape:zoom="0.2310705"
     inkscape:cx="380"
     inkscape:cy="509.93332"
     inkscape:window-x="-9"
     inkscape:window-y="-9"
     inkscape:window-maximized="1"
     inkscape:current-layer="svg88" />
  <g
     transform="matrix(0.1,0,0,-0.1,58.42373,834.0676)"
     id="g86"
     style="fill:#e6e6e6;stroke:none">
    <path
       d="m 2815,7637 c -36,-30 -43,-91 -17,-133 11,-17 39,-40 63,-51 76,-36 99,-83 47,-96 -46,-13 -93,28 -81,71 5,19 1,22 -26,22 -29,0 -31,-3 -31,-34 0,-22 9,-45 24,-63 21,-24 32,-28 93,-31 67,-4 72,-3 104,26 29,26 34,37 34,76 0,55 -18,75 -102,120 -68,36 -83,71 -37,82 38,10 78,-14 82,-49 3,-21 9,-27 28,-27 20,0 24,5 24,30 0,19 -9,40 -25,55 -21,21 -33,25 -89,25 -53,0 -70,-4 -91,-23 z"
       id="path2"
       inkscape:connector-curvature="0" />
    <path
       d="m 2305,7616 c -79,-29 -107,-96 -85,-203 10,-45 21,-66 51,-97 39,-38 40,-38 104,-34 112,7 148,50 142,168 -6,118 -43,168 -130,176 -23,2 -60,-2 -82,-10 z m 68,-41 c 17,-16 35,-89 44,-175 4,-45 2,-58 -12,-70 -38,-31 -69,31 -82,162 -4,48 -2,72 7,83 16,19 25,19 43,0 z"
       id="path4"
       inkscape:connector-curvature="0" />
    <path
       d="m 3456,7529 c -52,-183 -67,-243 -64,-257 4,-22 218,-78 229,-60 15,23 4,32 -57,47 -32,7 -60,15 -62,16 -1,1 14,64 35,139 23,84 33,140 27,146 -5,5 -28,12 -51,16 l -42,6 z"
       id="path6"
       inkscape:connector-curvature="0" />
    <path
       d="m 1895,7500 c -6,-10 2,-177 11,-220 3,-15 -22,13 -62,70 -37,52 -69,97 -70,99 -5,6 -94,-21 -100,-30 -3,-5 39,-71 92,-146 54,-76 99,-139 99,-141 1,-1 23,6 49,15 44,17 47,20 42,48 -3,16 -8,86 -11,155 -4,69 -9,133 -11,143 -6,18 -29,23 -39,7 z"
       id="path8"
       inkscape:connector-curvature="0" />
    <path
       d="m 3894,7279 c -41,-83 -74,-152 -72,-154 10,-9 91,-46 93,-43 8,7 145,289 145,296 0,5 -20,18 -45,30 l -45,22 z"
       id="path10"
       inkscape:connector-curvature="0" />
    <path
       d="m 4250,7105 c -55,-68 -100,-128 -100,-133 0,-14 146,-122 181,-134 64,-22 136,48 113,110 -10,25 -9,27 18,28 33,1 57,19 69,52 16,41 -13,85 -94,146 -40,31 -77,56 -80,56 -3,0 -51,-56 -107,-125 z m 183,-32 c -21,-29 -68,-39 -68,-14 0,7 11,28 25,46 25,33 25,34 45,15 19,-20 19,-20 -2,-47 z m -79,-76 c 8,-13 7,-24 -4,-44 -23,-40 -44,-50 -74,-34 l -25,14 36,44 c 37,45 49,49 67,20 z"
       id="path12"
       inkscape:connector-curvature="0" />
    <path
       d="m 1194,7131 c -18,-11 -39,-30 -48,-42 -23,-34 -21,-100 5,-128 35,-37 66,-44 141,-31 36,7 74,10 83,6 24,-9 15,-45 -17,-69 -23,-17 -32,-19 -52,-9 -13,6 -27,20 -31,31 -8,27 -16,26 -37,-3 -17,-23 -16,-25 9,-50 49,-50 137,-25 190,53 29,43 29,69 0,112 -32,48 -79,58 -163,36 -70,-18 -94,-15 -94,13 0,20 44,60 66,60 8,0 23,-9 35,-21 20,-20 21,-20 40,-3 19,17 19,18 -3,41 -27,29 -80,31 -124,4 z"
       id="path14"
       inkscape:connector-curvature="0" />
    <path
       d="m 2775,6997 c -45,-162 -143,-291 -269,-352 -39,-19 -125,-49 -191,-66 -66,-17 -142,-42 -168,-55 -67,-35 -124,-95 -159,-171 -79,-167 -36,-312 181,-610 98,-133 95,-121 34,-156 -7,-4 -71,61 -164,165 -168,191 -198,219 -279,257 -47,22 -68,26 -150,26 -86,0 -102,-3 -162,-32 -92,-43 -146,-97 -235,-232 -41,-63 -100,-139 -129,-168 -90,-90 -230,-143 -381,-143 -29,0 -53,-3 -52,-7 0,-5 28,-29 62,-54 34,-25 83,-73 109,-106 86,-115 113,-231 103,-444 -8,-161 6,-234 61,-317 40,-61 138,-137 197,-153 100,-27 329,13 707,125 47,14 88,22 92,18 4,-4 9,-18 10,-31 3,-21 -13,-28 -267,-115 -148,-51 -295,-105 -325,-120 -30,-16 -82,-56 -116,-90 -82,-82 -108,-148 -102,-261 6,-115 34,-169 152,-294 127,-134 152,-171 178,-254 27,-92 21,-226 -16,-342 -14,-43 -24,-80 -22,-82 1,-2 34,17 71,42 142,93 289,134 409,115 73,-11 117,-26 236,-77 159,-68 320,-55 459,38 121,81 138,139 148,497 l 6,242 h 42 42 l 6,-87 c 4,-49 9,-149 12,-223 4,-74 11,-162 16,-194 22,-125 102,-230 217,-284 50,-24 70,-27 157,-27 98,0 103,1 240,56 212,85 287,96 427,60 85,-22 149,-52 222,-105 28,-19 52,-34 54,-31 2,2 -5,28 -17,58 -32,87 -54,222 -46,286 15,125 58,201 188,340 53,56 90,107 111,150 28,60 31,75 31,161 0,81 -4,103 -26,150 -34,72 -93,137 -162,178 -30,18 -171,73 -313,123 -141,49 -258,90 -260,92 -6,6 9,57 17,57 5,0 128,-30 272,-66 221,-57 275,-67 348,-67 75,0 94,4 150,30 108,51 182,141 221,267 19,62 20,85 15,210 -7,163 6,246 50,328 29,53 126,160 198,216 l 40,31 -85,1 c -222,1 -364,89 -495,305 -33,55 -80,120 -105,145 -80,81 -188,117 -327,107 -146,-10 -225,-70 -423,-320 -89,-112 -118,-143 -130,-136 -46,26 -48,20 79,213 142,215 170,281 171,397 0,90 -16,143 -65,209 -67,92 -155,132 -381,175 -83,15 -163,37 -199,54 -70,33 -140,97 -191,176 -36,58 -94,186 -94,211 0,7 -4,15 -9,18 -5,3 -16,-22 -26,-57 z m 108,-466 c 87,-91 225,-160 393,-196 130,-27 206,-51 269,-83 111,-56 112,-141 1,-295 -28,-40 -80,-120 -115,-177 -35,-58 -64,-106 -65,-107 -1,-1 -29,5 -61,14 -86,22 -226,13 -328,-22 -91,-31 -138,-30 -232,5 -106,40 -278,38 -395,-4 -11,-4 -44,44 -125,181 -159,269 -158,268 -145,308 20,60 66,89 222,140 252,83 402,172 477,282 l 35,52 19,-32 c 10,-18 33,-47 50,-66 z m 1158,-624 c 19,-12 77,-80 130,-151 111,-148 188,-229 277,-293 66,-48 146,-83 188,-83 h 25 l -30,-37 c -42,-53 -88,-159 -111,-256 -16,-67 -19,-114 -17,-262 2,-174 1,-182 -23,-230 -21,-42 -32,-52 -68,-65 -46,-16 -22,-19 -352,51 -47,10 -131,24 -188,31 l -103,12 7,76 c 13,129 8,338 -10,435 -29,149 -76,253 -168,367 l -21,27 69,78 c 38,43 94,107 124,143 29,36 79,91 109,123 47,49 61,57 92,57 21,0 50,-9 70,-23 z m -2240,-36 c 25,-15 73,-62 106,-102 33,-41 71,-83 83,-94 12,-11 49,-50 81,-86 l 59,-67 -35,-42 c -151,-181 -209,-488 -150,-795 8,-44 15,-81 15,-82 0,-7 -81,-25 -187,-43 -71,-12 -189,-36 -263,-55 -211,-52 -211,-52 -254,-14 -69,60 -71,69 -72,309 0,192 -3,223 -23,288 -26,90 -61,160 -101,206 l -30,34 34,6 c 58,11 167,72 243,136 55,46 91,89 149,178 99,150 129,188 177,223 54,39 107,39 168,0 z m 943,-361 66,-21 v -204 -205 h -355 c -297,0 -355,2 -355,14 0,29 41,143 67,189 62,106 183,199 304,231 80,22 195,20 273,-4 z m 501,-4 c 184,-49 313,-193 349,-388 l 7,-38 h -346 -345 v 200 199 l 63,20 c 74,24 199,27 272,7 z M 2810,4475 v -505 l -27,6 c -112,25 -158,40 -228,74 -245,118 -388,341 -440,685 -8,55 -15,133 -15,173 v 72 h 355 355 z m 796,448 c 16,-111 -16,-326 -70,-459 -87,-215 -260,-377 -476,-447 -41,-14 -92,-28 -112,-31 l -38,-7 v 496 495 h 344 345 z m 194,-535 c 118,-43 468,-201 496,-223 24,-19 29,-30 29,-67 0,-60 -30,-115 -133,-244 -168,-211 -206,-296 -207,-467 0,-92 -2,-106 -15,-101 -97,43 -126,49 -270,49 h -145 l -105,-51 c -134,-66 -201,-88 -272,-88 -69,-1 -103,20 -136,86 -20,40 -25,70 -32,203 -5,85 -14,192 -20,236 -6,45 -9,83 -7,85 2,2 30,11 62,19 274,72 495,255 629,523 30,59 41,72 54,67 9,-4 42,-16 72,-27 z M 2081,4282 c 42,-86 73,-134 117,-183 108,-117 270,-212 459,-268 69,-21 72,-23 68,-49 -6,-34 -22,-198 -35,-362 -14,-165 -23,-196 -63,-221 -54,-34 -145,-22 -302,39 -164,63 -229,76 -353,69 -85,-4 -137,-16 -222,-51 -13,-5 -14,3 -12,53 8,138 -73,338 -186,463 -96,106 -129,149 -157,209 -56,121 -21,163 205,245 58,21 173,68 255,105 83,37 155,68 160,68 6,0 35,-53 66,-117 z"
       id="path16"
       inkscape:connector-curvature="0" />
    <path
       d="m 4680,6774 c -66,-59 -120,-112 -120,-118 1,-6 37,-49 81,-96 75,-79 80,-83 96,-67 16,16 15,19 -25,60 -23,23 -42,47 -42,53 0,13 63,74 77,74 6,0 23,-13 36,-30 28,-33 37,-36 55,-18 8,8 4,19 -19,46 -34,38 -34,48 4,76 l 26,19 38,-42 c 35,-39 40,-41 57,-28 19,14 16,18 -54,96 -41,44 -77,81 -82,81 -4,0 -61,-48 -128,-106 z"
       id="path18"
       inkscape:connector-curvature="0" />
    <path
       d="m 787,6772 c -15,-15 -27,-32 -27,-36 0,-7 30,-57 157,-260 23,-35 26,-37 41,-22 15,14 15,18 0,50 -16,33 -16,34 11,66 l 27,33 33,-18 33,-17 34,33 c 19,18 34,38 34,44 0,10 -289,155 -309,155 -4,0 -19,-13 -34,-28 z m 163,-152 c 0,-4 -9,-15 -19,-24 -19,-17 -21,-16 -45,23 -14,22 -26,43 -26,46 0,2 20,-5 45,-17 25,-12 45,-25 45,-28 z"
       id="path20"
       inkscape:connector-curvature="0" />
    <path
       d="m 5020,6408 c -74,-44 -139,-83 -144,-88 -10,-10 33,-90 48,-90 6,0 38,16 70,36 39,23 62,32 69,25 16,-16 1,-38 -52,-73 -28,-18 -51,-39 -51,-47 0,-11 29,-68 46,-90 2,-2 28,17 59,43 41,35 55,54 55,74 0,20 3,23 12,14 21,-21 82,-14 106,11 36,38 29,88 -24,179 -25,43 -49,80 -52,82 -4,2 -68,-32 -142,-76 z m 170,-58 c 8,-15 6,-24 -10,-40 -24,-24 -53,-26 -75,-4 -15,15 -13,18 22,40 47,29 50,29 63,4 z"
       id="path22"
       inkscape:connector-curvature="0" />
    <path
       d="m 456,6354 c -57,-94 -67,-117 -55,-125 22,-14 26,-11 46,21 9,17 20,30 24,30 4,0 60,-31 125,-70 66,-38 122,-70 126,-70 8,0 62,89 57,94 -2,2 -59,36 -127,76 l -123,72 20,33 c 19,33 13,55 -13,55 -6,0 -42,-52 -80,-116 z"
       id="path24"
       inkscape:connector-curvature="0" />
    <path
       d="m 247,5973 c -13,-27 -18,-48 -12,-50 6,-2 75,-35 154,-73 79,-39 145,-69 146,-68 5,6 45,87 45,92 0,6 -289,146 -301,146 -5,0 -19,-21 -32,-47 z"
       id="path26"
       inkscape:connector-curvature="0" />
    <path
       d="m 5291,5924 c -91,-8 -166,-16 -169,-18 -2,-3 -1,-13 2,-23 5,-15 14,-18 44,-15 37,4 39,2 55,-39 13,-34 14,-45 5,-50 -48,-28 -50,-31 -32,-82 9,-26 20,-47 25,-47 16,0 278,194 279,206 0,19 -30,84 -38,83 -4,-1 -81,-8 -171,-15 z m 69,-48 c 0,-6 -80,-59 -84,-55 -3,2 -7,16 -11,32 -7,27 -7,27 44,27 28,0 51,-2 51,-4 z"
       id="path28"
       inkscape:connector-curvature="0" />
    <path
       d="m 137,5609 c -9,-5 -23,-22 -31,-38 -20,-38 -57,-185 -48,-192 8,-7 295,-79 316,-79 8,0 17,15 20,36 4,19 9,41 12,49 4,9 -16,18 -70,31 -75,18 -93,33 -60,52 10,5 32,6 53,1 20,-5 50,-9 67,-9 27,0 32,4 37,29 3,16 9,40 12,54 7,24 6,24 -70,26 -45,1 -83,-3 -91,-10 -11,-9 -16,-6 -23,14 -17,43 -80,61 -124,36 z m 64,-99 c 21,-12 27,-60 7,-60 -20,0 -88,20 -88,26 0,3 5,14 10,25 12,21 41,25 71,9 z"
       id="path30"
       inkscape:connector-curvature="0" />
    <path
       d="m 5430,5458 c -74,-10 -135,-20 -137,-21 -7,-7 29,-203 42,-228 28,-53 121,-52 154,2 16,26 20,28 31,14 19,-23 86,-19 111,6 20,20 21,29 16,118 -3,53 -9,104 -13,114 -8,21 -27,21 -204,-5 z m 180,-108 c 0,-41 -84,-57 -99,-17 -10,25 8,34 67,36 25,1 32,-3 32,-19 z m -140,-18 c 0,-53 -93,-70 -117,-22 -12,23 -11,25 15,31 15,4 44,7 65,8 30,1 37,-3 37,-17 z"
       id="path32"
       inkscape:connector-curvature="0" />
    <path
       d="M 6,5058 C 3,5045 0,4994 0,4944 v -91 l 166,-8 c 91,-4 167,-5 168,-3 2,1 6,56 10,121 l 7,119 -23,-4 c -21,-3 -23,-9 -26,-68 l -3,-65 -59,3 -60,4 v 49 c 0,41 -3,49 -19,49 -14,0 -19,-10 -24,-45 -2,-26 -7,-48 -9,-51 -3,-2 -23,-2 -45,2 l -40,6 5,50 c 3,36 1,53 -9,59 -21,13 -26,11 -33,-13 z"
       id="path34"
       inkscape:connector-curvature="0" />
    <path
       d="m 5520,4948 c -91,-5 -166,-10 -166,-11 -1,-1 1,-26 3,-54 l 6,-53 51,5 c 28,3 104,7 169,11 l 117,6 v 54 c 0,30 -3,53 -7,52 -5,0 -82,-5 -173,-10 z"
       id="path36"
       inkscape:connector-curvature="0" />
    <path
       d="m 4,4564 c 3,-9 6,-19 6,-24 0,-4 49,-13 110,-20 61,-8 110,-16 110,-20 0,-3 -43,-24 -96,-45 -52,-21 -97,-43 -101,-47 -9,-16 8,-98 20,-98 7,1 80,29 162,64 l 150,63 -4,44 c -1,24 -4,45 -6,47 -3,4 -321,51 -344,52 -8,0 -11,-6 -7,-16 z"
       id="path38"
       inkscape:connector-curvature="0" />
    <path
       d="m 5644,4540 c -4,-22 -10,-40 -15,-40 -9,0 -201,27 -256,35 -31,5 -31,5 -38,-45 -4,-28 -4,-54 -1,-57 5,-5 240,-42 275,-43 10,0 12,-10 7,-40 -3,-23 -2,-40 3,-40 5,0 16,-2 23,-5 21,-8 56,254 36,266 -23,15 -28,10 -34,-31 z"
       id="path40"
       inkscape:connector-curvature="0" />
    <path
       d="m 420,3611 -25,-19 24,-44 c 38,-69 45,-74 75,-54 14,9 26,21 26,27 0,18 -54,109 -65,109 -5,0 -21,-9 -35,-19 z"
       id="path42"
       inkscape:connector-curvature="0" />
    <path
       d="m 5280,3578 c -16,-29 -30,-56 -30,-60 0,-9 42,-38 55,-38 6,0 24,25 40,55 l 30,56 -25,19 c -14,11 -28,20 -32,20 -4,0 -21,-24 -38,-52 z"
       id="path44"
       inkscape:connector-curvature="0" />
    <path
       d="m 4970,3405 -30,-44 131,-106 c 72,-58 135,-105 140,-105 14,0 70,83 62,90 -39,34 -263,210 -267,210 -3,0 -19,-20 -36,-45 z"
       id="path46"
       inkscape:connector-curvature="0" />
    <path
       d="m 623,3327 c -84,-34 -153,-64 -153,-67 0,-3 7,-13 14,-23 12,-16 16,-16 49,-2 l 35,14 27,-39 27,-39 -23,-30 -22,-30 28,-41 c 16,-23 31,-43 35,-45 4,-2 55,63 114,145 l 108,149 -27,36 c -15,19 -35,35 -44,34 -9,-1 -85,-29 -168,-62 z m 67,-62 c -17,-25 -34,-45 -38,-45 -4,0 -15,11 -24,24 -17,24 -17,24 35,44 29,11 53,21 55,21 2,1 -11,-19 -28,-44 z"
       id="path48"
       inkscape:connector-curvature="0" />
    <path
       d="m 4811,3195 c -17,-20 -31,-39 -31,-43 0,-4 57,-61 126,-126 l 126,-119 34,39 c 18,21 33,42 34,46 0,8 -241,238 -251,238 -4,0 -21,-16 -38,-35 z"
       id="path50"
       inkscape:connector-curvature="0" />
    <path
       d="m 4632,2997 c -18,-18 -32,-37 -32,-41 0,-5 48,-63 107,-130 59,-66 109,-124 113,-128 8,-11 80,50 80,67 0,15 -216,265 -229,265 -4,0 -21,-15 -39,-33 z"
       id="path52"
       inkscape:connector-curvature="0" />
    <path
       d="m 1059,2839 c -57,-68 -108,-129 -113,-137 -6,-10 8,-30 49,-72 108,-109 173,-116 261,-26 36,37 54,65 62,97 18,70 3,104 -81,187 l -74,73 z m 188,-51 c -9,-31 -99,-139 -135,-160 -26,-15 -31,-16 -50,-2 -22,15 -21,16 66,119 85,101 87,103 106,85 12,-12 17,-26 13,-42 z"
       id="path54"
       inkscape:connector-curvature="0" />
    <path
       d="m 792,2939 c -27,-10 -36,-31 -28,-64 9,-35 51,-44 78,-17 39,38 1,100 -50,81 z"
       id="path56"
       inkscape:connector-curvature="0" />
    <path
       d="m 4490,2855 c -12,-14 -3,-44 68,-235 3,-8 -35,20 -85,63 -50,42 -95,77 -100,77 -4,0 -26,-15 -47,-33 l -39,-34 138,-116 c 147,-122 143,-121 194,-77 l 23,20 -31,89 c -68,195 -93,261 -101,261 -4,0 -13,-7 -20,-15 z"
       id="path58"
       inkscape:connector-curvature="0" />
    <path
       d="m 4178,2626 c -14,-10 -18,-28 -18,-75 0,-33 -2,-61 -5,-61 -3,0 -26,13 -52,29 -45,28 -49,29 -73,14 -41,-24 -75,-51 -70,-56 3,-2 44,-27 93,-57 l 87,-53 v -94 c 0,-91 1,-93 20,-83 17,9 20,21 20,81 v 70 l 58,-33 59,-32 46,30 c 26,16 47,31 47,34 0,3 -43,31 -95,63 l -94,58 -3,89 c -3,82 -4,88 -20,76 z"
       id="path60"
       inkscape:connector-curvature="0" />
    <path
       d="m 1661,2384 c -40,-85 -70,-162 -67,-170 12,-32 35,-11 67,62 18,42 35,71 37,66 1,-5 -3,-47 -11,-91 l -14,-82 29,-15 c 17,-9 31,-14 32,-12 2,3 101,122 118,143 5,6 -9,-30 -32,-79 -39,-83 -40,-89 -23,-102 23,-17 72,-38 77,-33 6,7 146,312 146,319 0,3 -21,16 -46,28 -54,27 -53,27 -125,-63 -24,-30 -45,-53 -47,-51 -1,2 4,45 13,96 9,51 15,93 13,95 -5,5 -87,45 -91,45 -2,0 -37,-70 -76,-156 z"
       id="path62"
       inkscape:connector-curvature="0" />
    <path
       d="m 3846,2444 c -9,-8 -16,-27 -17,-42 -1,-15 -4,-38 -8,-51 l -7,-25 -42,39 -43,38 -52,-18 c -29,-10 -54,-20 -56,-22 -3,-2 30,-36 74,-76 l 78,-73 -12,-79 c -7,-43 -15,-85 -18,-92 -7,-18 22,-17 40,2 8,7 18,36 22,62 4,26 9,52 12,56 3,5 25,-10 48,-33 46,-45 47,-45 124,-13 l 36,16 -84,77 -84,77 13,69 c 6,38 14,77 17,87 6,22 -20,23 -41,1 z"
       id="path64"
       inkscape:connector-curvature="0" />
    <path
       d="m 1320,2420 c -11,-26 -10,-33 5,-50 34,-38 85,-20 85,30 0,33 -17,50 -51,50 -20,0 -30,-7 -39,-30 z"
       id="path66"
       inkscape:connector-curvature="0" />
    <path
       d="m 2170,2322 c -83,-41 -130,-203 -83,-283 23,-39 87,-69 147,-69 39,0 53,5 77,29 33,33 40,85 13,95 -21,8 -34,-1 -34,-22 0,-25 -26,-59 -51,-65 -14,-4 -29,2 -46,19 -23,23 -25,31 -19,76 9,65 41,151 66,173 13,12 27,15 45,11 26,-7 30,-17 26,-73 -3,-37 16,-44 43,-17 20,19 20,35 1,80 -25,59 -114,82 -185,46 z"
       id="path68"
       inkscape:connector-curvature="0" />
    <path
       d="m 3484,2330 c -15,-6 -24,-24 -33,-65 l -13,-57 -43,42 -44,43 -48,-13 c -26,-7 -51,-15 -56,-17 -4,-3 25,-40 65,-84 l 72,-80 -22,-83 c -27,-101 -26,-96 -2,-96 23,0 33,17 50,86 l 13,52 46,-48 46,-48 53,15 c 28,9 52,18 52,22 0,3 -33,42 -74,86 l -73,80 19,70 c 10,39 21,78 24,88 6,19 0,20 -32,7 z"
       id="path70"
       inkscape:connector-curvature="0" />
    <path
       d="m 2486,2128 c -4,-79 -10,-160 -13,-181 -5,-36 -4,-39 18,-35 23,3 24,8 27,78 3,86 16,111 26,50 3,-22 11,-63 17,-90 10,-47 12,-50 43,-50 31,0 32,2 64,93 l 31,92 -6,-89 c -6,-99 -3,-106 58,-106 34,0 37,2 42,38 3,20 9,101 13,180 l 7,142 -32,2 c -78,4 -71,10 -106,-87 -36,-99 -35,-100 -58,30 l -12,70 -56,3 -56,3 z"
       id="path72"
       inkscape:connector-curvature="0" />
    <path
       d="m 2981,2253 -34,-4 7,-122 c 4,-67 9,-148 13,-180 l 6,-59 86,7 c 137,9 151,13 151,37 0,19 -4,20 -69,16 l -69,-5 -6,126 c -9,165 -14,191 -35,189 -9,0 -31,-3 -50,-5 z"
       id="path74"
       inkscape:connector-curvature="0" />
    <path
       d="M 42,1038 C 46,457 47,421 66,355 121,164 222,63 400,19 471,1 688,1 760,19 c 179,44 280,143 338,334 14,44 16,143 19,675 l 4,622 H 900 680 v -547 c 0,-302 -5,-566 -10,-588 -11,-49 -41,-75 -85,-75 -48,0 -64,8 -83,44 -15,28 -17,85 -20,599 l -3,567 H 259 39 Z"
       id="path76"
       inkscape:connector-curvature="0" />
    <path
       d="M 1280,840 V 30 h 385 385 v 205 205 h -160 -160 v 605 605 h -225 -225 z"
       id="path78"
       inkscape:connector-curvature="0" />
    <path
       d="M 2160,841 V 30 h 258 c 381,0 511,20 625,92 117,74 168,172 175,337 9,212 -65,336 -240,402 l -59,22 56,22 c 154,63 224,184 213,368 -12,189 -105,295 -306,349 -68,18 -116,21 -399,25 l -323,6 z m 548,429 c 114,-70 51,-239 -90,-240 -16,0 -18,13 -18,130 v 130 h 38 c 20,0 52,-9 70,-20 z m 1,-582 c 86,-53 80,-214 -10,-260 -19,-10 -49,-18 -66,-18 h -33 v 156 156 l 38,-7 c 20,-4 52,-16 71,-27 z"
       id="path80"
       inkscape:connector-curvature="0" />
    <path
       d="M 3350,841 V 30 h 225 225 l 2,287 3,287 90,-285 91,-284 237,-3 c 130,-1 237,0 237,2 0,3 -69,164 -154,358 l -153,352 56,34 c 69,41 103,73 141,132 78,122 80,351 3,492 -35,64 -130,153 -195,183 -116,53 -151,57 -490,62 l -318,5 z m 562,420 c 63,-71 63,-217 0,-284 -22,-23 -75,-47 -104,-47 -5,0 -8,84 -8,186 v 187 l 43,-6 c 30,-4 50,-14 69,-36 z"
       id="path82"
       inkscape:connector-curvature="0" />
    <path
       d="M 4646,859 C 4553,424 4475,59 4473,49 c -5,-18 4,-19 214,-19 h 220 l 12,87 c 6,49 14,103 17,121 l 6,32 h 123 123 l 11,-82 c 7,-46 15,-100 18,-120 l 6,-38 h 218 c 121,0 219,1 218,3 0,1 -77,364 -172,807 l -172,805 -250,3 -250,2 z m 425,-257 c -40,-2 -76,0 -79,3 -3,2 12,128 33,277 l 39,273 41,-275 40,-275 z"
       id="path84"
       inkscape:connector-curvature="0" />
  </g>
</svg>
